<?xml version="1.0" encoding="UTF-8"?>
<svg id="Layer_1" xmlns="http://www.w3.org/2000/svg" version="1.1" viewBox="0 0 384 383.28">
  <!-- Generator: Adobe Illustrator 29.0.1, SVG Export Plug-In . SVG Version: 2.1.0 Build 192)  -->
  <path d="M384,161.84v140.62c-5.08,43.1-39.83,77.54-83.41,80.82H84.24c-44.26-3.4-80.13-39.08-83.44-83.4,2-44.27-2.55-90.7,0-134.71,2.58-44.55,39.16-80.8,83.45-84.15h216.34c42.19,2.6,79.81,38.53,83.41,80.82ZM85.25,111.2c-28.91,2.69-51.74,26.06-54.39,54.85,2.24,42.77-3.33,89.19-.09,131.54,2.26,29.56,26.3,53.36,55.75,55.73l210.32.04c27.79-1.59,51.1-21.97,56.28-49.22-.59-44.27,3.99-92.72.97-136.72-2.08-30.24-26.37-54.35-56.5-56.47l-212.34.25Z"/>
  <path d="M111.59.28c22.42,2.25,42.16,22.88,40.44,46.04-.95,12.86-16.89,18.65-25.87,9.34-4.74-4.91-3.23-8.52-4.6-14.1-2.8-11.36-17.7-15.28-25.57-6.38-4.66,5.27-2.8,9.99-4.76,15.43-5.53,15.36-30.04,12.12-29.05-8.1C63.24,20.55,80.83,2.46,102.61.28c2.38-.24,6.6-.24,8.98,0Z"/>
  <path d="M285.96.28c20.6,2.47,40.02,25.15,38.2,46.03-1.36,15.55-22.45,18.99-28.6,5.33-1.71-3.79-.97-6.39-1.88-10.09-2.8-11.36-17.7-15.28-25.57-6.38-5.66,6.4-1.89,14.21-7.95,20.48-8.49,8.79-24.12,3.94-25.78-7.95-2.97-21.24,17.24-44.93,38.1-47.43,3.06-.37,10.41-.37,13.47,0Z"/>
  <path d="M72.48,163.52l238.56-.18c17.53,2.63,17.54,27.29,0,29.92H73.8c-16.86-2.47-17.76-25.78-1.32-29.74Z"/>
  <path d="M93.45,221.88c28.85-4.19,28.85,41.2,0,37.01-20.61-3-20.61-34.01,0-37.01Z"/>
  <path d="M157.05,221.86c26.04-4.43,30.93,33.63,7.11,37.02-25.9,3.69-29.1-33.28-7.11-37.02Z"/>
  <path d="M221.41,221.86c26.04-4.43,30.93,33.63,7.11,37.02-25.9,3.69-29.1-33.28-7.11-37.02Z"/>
  <path d="M285.77,221.86c26.04-4.43,30.93,33.63,7.11,37.02-25.9,3.69-29.1-33.28-7.11-37.02Z"/>
  <path d="M92.69,286.19c26.04-4.43,30.93,33.63,7.11,37.02-25.9,3.69-29.1-33.28-7.11-37.02Z"/>
  <path d="M157.05,286.19c26.04-4.43,30.93,33.63,7.11,37.02-25.9,3.69-29.1-33.28-7.11-37.02Z"/>
  <path d="M221.41,286.19c26.04-4.43,30.93,33.63,7.11,37.02-25.9,3.69-29.1-33.28-7.11-37.02Z"/>
  <path d="M285.77,286.19c26.04-4.43,30.93,33.63,7.11,37.02-25.9,3.69-29.1-33.28-7.11-37.02Z"/>
</svg>