<?xml version="1.0" encoding="UTF-8"?>
<svg id="Layer_1" xmlns="http://www.w3.org/2000/svg" version="1.1" viewBox="0 0 384 391.65">
  <!-- Generator: Adobe Illustrator 29.0.1, SVG Export Plug-In . SVG Version: 2.1.0 Build 192)  -->
  <path d="M238.06,8.54c14.83,4.83,15.27,25.14.04,29.6l-152.08.43c-30.17,2.98-53.18,26.81-55.08,57.1,2.59,48.91-3.32,101.18,0,149.7,2.06,30.06,25.81,53.87,55.73,56.45h210.8c27.27-1.77,51.22-22.72,55.61-49.83,1.51-9.33-1.72-21.83,6.45-27.96,9.01-6.76,20.94-2.08,24.29,8.22-.38,6.08.51,12.71,0,18.7-3.62,42.49-41.68,78.69-84.07,80.84l-216.08-.04c-41.16-3.57-75.37-35.1-81.77-76.03.79-53.26-3.95-110.02-.88-163.04C3.21,55.24,30.2,21.94,66.12,11.91l15.7-3.37h156.24Z"/>
  <path d="M383.84,336.25v7.48c-13.94,27.51-42.81,45.85-73.6,47.92H73.94c-25.77-1.33-59.8-20.42-71.02-44.15-5.82-12.31,3.44-25.04,16.89-22.14,7.39,1.59,10.13,9.45,14.53,14.64,10.85,12.8,25.9,20.14,42.63,21.68l230.27.04c17.02-1.3,32.34-8.74,43.34-21.72,4.27-5.04,6.89-12.62,13.96-14.46,9.13-2.39,15.95,2.52,19.3,10.71Z"/>
  <path d="M321.79,8.54c54.75,5.49,52.03,86.46-1.09,89.82-58.78,3.71-65.6-84.03-7.88-89.82,2.38-.24,6.6-.24,8.97,0ZM314.86,38.65c-20.38,3.31-13.59,36.48,8.18,28.39,16.01-5.95,9.14-31.2-8.18-28.39Z"/>
  <path d="M383.84,168.65v11.22c-3.61,9.19-12.43,14.26-21.92,9.59-10.03-4.93-6.85-14.62-9.68-23.23-9.54-28.97-59.05-29.38-69.46-1.09-2.22,6.03-1.17,12.87-3.73,17.96-4.47,8.89-16.68,10.79-23.81,3.9-9.49-9.16-2.25-30.84,3.38-40.82,25.84-45.82,102.41-41.95,121.32,8.05l3.92,14.41Z"/>
  <path d="M189.27,68.57c9.28-1.58,17.37,4.13,18.17,13.63l-.03,176.6c-3.07,17.88-27.79,17.34-29.94-.72l.03-176.61c.68-6.16,5.59-11.86,11.77-12.91Z"/>
  <path d="M72.65,97.75h63.19c16.12,3.46,15.27,27.49-.63,29.68-18.76,2.59-43.2-1.65-62.55-.11-15.78-3.77-15.78-25.8,0-29.57Z"/>
  <path d="M72.65,157.61h63.19c16.12,3.46,15.27,27.49-.63,29.68-18.76,2.59-43.2-1.65-62.55-.11-15.78-3.77-15.78-25.8,0-29.57Z"/>
  <path d="M72.65,217.46h63.19c16.12,3.46,15.27,27.49-.63,29.68-18.76,2.59-43.2-1.65-62.55-.11-15.78-3.77-15.78-25.8,0-29.57Z"/>
  <path d="M249.08,217.46h63.19c16.12,3.46,15.27,27.49-.63,29.68-18.76,2.59-43.2-1.65-62.55-.11-15.78-3.77-15.78-25.8,0-29.57Z"/>
</svg>