<?xml version="1.0" encoding="UTF-8"?>
<svg id="Layer_1" xmlns="http://www.w3.org/2000/svg" version="1.1" viewBox="0 0 384 383.38">
  <!-- Generator: Adobe Illustrator 29.0.1, SVG Export Plug-In . SVG Version: 2.1.0 Build 192)  -->
  <path d="M0,158.82c2.88-21.08,11.78-40.15,26.55-55.41,37.2-27.46,73.35-59.31,111.22-85.62C161.55,1.25,187.87-4.34,216.27,3.5c24.68,6.81,41.59,25.3,62.11,39.3v-22.08c0-2.02,3.82-7.26,5.62-8.6,9.73-7.3,23.26-1.32,24.35,10.82,1.51,16.86-1.13,36-.1,53.11-2,10.05-12.52,15.22-21.89,10.8-41.32-26.12-77.37-81.16-130.96-44.66-37.26,25.38-73.01,57.56-109.4,84.45-9.27,10.51-14.63,23.06-16.07,37.07,2.45,43.58-3.3,90.81,0,133.97,2.33,30.44,27.54,54.47,57.95,55.81h208.11c30.65-1.93,55.03-25.85,57.21-56.56,3.18-44.74-1.65-94.07-.86-139.1-1.55-9.96-6.54-21.19-12.97-28.95-5.04-6.09-14.56-10.67-15.35-19.08-1.29-13.62,12.48-21.21,23.9-14.17,19.53,12.04,34.32,44.05,35.26,66.53-2.04,45.04,2.59,92.28,0,137.05-2.46,42.55-38.12,80.43-80.86,84.17H80.82c-5-1.3-10.12-1.84-15.13-3.21-29.89-8.13-54.79-33.12-62.64-63.1-1.26-4.82-1.99-9.69-3.05-14.54v-143.72Z"/>
  <path d="M157.71,173.22c26.23-4.5,30.82,33.67,7.11,37.05-25.76,3.67-29.3-33.25-7.11-37.05Z"/>
  <path d="M218.34,173.24c26.18-3.73,29.51,34.52,5.71,37.14-25.41,2.8-28.64-33.87-5.71-37.14Z"/>
  <path d="M158.47,233.12c26.18-3.73,29.51,34.52,5.71,37.14-25.41,2.8-28.64-33.87-5.71-37.14Z"/>
  <path d="M218.34,233.12c26.18-3.73,29.51,34.52,5.71,37.14-25.41,2.8-28.64-33.87-5.71-37.14Z"/>
</svg>