<?xml version="1.0" encoding="UTF-8"?>
<svg id="Layer_1" xmlns="http://www.w3.org/2000/svg" version="1.1" viewBox="0 0 384.93 302.47">
  <!-- Generator: Adobe Illustrator 29.0.1, SVG Export Plug-In . SVG Version: 2.1.0 Build 192)  -->
  <path d="M384,80.87v140.73c-5.08,43.13-39.83,77.6-83.41,80.87H84.24c-44.26-3.4-80.13-39.11-83.44-83.46,2-44.3-2.55-90.76,0-134.8C3.37,39.63,39.96,3.34,84.24,0h216.34c42.19,2.6,79.81,38.56,83.41,80.87ZM85.25,30.2c-28.91,2.69-51.74,26.08-54.39,54.89,2.24,42.8-3.33,89.26-.09,131.64,2.26,29.59,26.3,53.4,55.75,55.77l210.32.04c27.79-1.59,51.1-21.98,56.28-49.25-.44-44.19,3.78-92.1.97-136.07-1.98-30.9-25.75-54.88-56.5-57.26l-212.34.25Z"/>
  <path d="M308.97,94.53c15.42-2.67,24.38,15.16,13.33,26.05-27.52,18.47-53.43,44.23-81.3,61.66-71.59,44.78-121.69-23.84-175.07-60.55-11.12-10.15-3.54-28.03,11.62-26.59,5.05.48,9.76,5,13.76,7.94,22.44,16.48,45.24,38.2,68.24,53.01,21.18,13.63,45.83,13.35,66.94-.29,25.88-16.72,50.14-41.66,76.02-57.95,2.13-1.34,3.8-2.81,6.45-3.27Z"/>
</svg>