<?xml version="1.0" encoding="UTF-8"?>
<svg id="Layer_1" xmlns="http://www.w3.org/2000/svg" version="1.1" viewBox="0 0 383.28 384">
  <!-- Generator: Adobe Illustrator 29.0.1, SVG Export Plug-In . SVG Version: 2.1.0 Build 192)  -->
  <path d="M383.28,81.95v221.31c-1.32,5.41-2,10.89-3.54,16.27-8.79,30.53-35.01,54.87-65.92,62.01l-16.62,2.47H86.11c-45.16-2.43-82.6-37.94-86.11-83.33L.04,83.83C4.95,36.54,41.42,3.47,88.7,1.16c70.86-3.45,145.18,1.97,216.27.88,39.98,4.62,74.78,39.68,78.32,79.91ZM80.71,32.06c-24.83,3.94-44.64,23.09-49.65,47.6-1.8,75.04-1.8,150.83,0,225.87,5.19,25.43,26.37,45.18,52.41,47.84h216.39c28.93-2.81,51.38-26.92,53.52-55.7-.78-72.63,1.41-145.54-1.12-218.01-5.15-25.15-25.95-44.89-51.7-47.8l-219.85.2Z"/>
  <path d="M263.37,124.79c49.45-4.29,77.96,53.21,45.83,90.64-18.05,21.03-43.52,43.67-63.66,63.51-9.22,9.08-15.93,16.57-27.45,23.43-24.08,14.33-51.68,15.83-78.49,21.85-10.68-.83-15.89-7.01-15.33-17.62.66-12.69,6.48-39.35,10.13-51.93,13.81-47.57,68.28-80.93,99.17-117.77,8.26-6.95,19.02-11.17,29.8-12.1ZM157.98,289.79c22.32-2.92,40.91-8.13,58.03-23.15,24.72-21.69,46.26-49.2,70.73-71.4,18.43-22.28-8.06-51.51-32.14-36.59-23.41,25.18-52.47,48.94-74.94,74.68-14.27,16.35-18.91,35.4-21.68,56.46Z"/>
  <path d="M136.11,61.17c9.47-.84,15.74,6.28,16.62,15.18,2.82,28.48-1.52,59.08-29.95,72.5-12.48,5.89-35.26,6.14-49.05,4.9-18.28-1.64-18.79-28.04.04-29.93,15.24-1.53,36.1,5.41,45.42-10.71,7.37-12.75.79-29.22,3.95-41.66,1.37-5.37,7.56-9.81,12.97-10.29Z"/>
</svg>