<?xml version="1.0" encoding="UTF-8"?>
<svg id="Layer_1" xmlns="http://www.w3.org/2000/svg" version="1.1" viewBox="0 0 383.41 383.29">
  <!-- Generator: Adobe Illustrator 29.0.1, SVG Export Plug-In . SVG Version: 2.1.0 Build 192)  -->
  <path d="M302.41,0l15.72,3.37c33.37,9.31,58.35,38.01,64.17,72.07,2.2,74.89.35,150.09.95,225.1-3.73,43.65-38.96,79.07-82.71,82.71l-216.36.04c-37.6-2.59-70.67-28.83-80.8-65.16l-3.37-15.72V80.84C4.29,39.74,39.2,3.55,80.84,0h221.57ZM84.43,30.17c-28.91,2.69-51.75,26.08-54.4,54.89.48,73.17-1.46,146.63.99,219.64,5.27,26.7,28.15,46.78,55.4,48.65,72.53-.68,145.26,1.22,217.66-.97,27.27-5.18,47.66-28.49,49.25-56.29-.78-72.47,1.41-145.21-1.12-217.52-5.19-26.51-27.78-46.34-54.69-48.61l-213.1.21Z"/>
  <path d="M230.4,60.1c50.53-5.19,79.48,52.67,47.33,90.75-35.65,29.37-70.23,84.23-114.36,99.72-13.03,4.57-45.47,12.02-58.96,12.9-10.29.67-17.5-6.45-16.82-16.82.77-11.68,6.27-34.14,9.2-46.19,13.15-54.03,69.48-86.92,103.81-127.49,8.46-6.97,18.79-11.74,29.8-12.87ZM122.02,229.05c21.61-2.96,40.58-7.85,57.28-22.43,26.67-23.3,50.65-53.17,77.03-77.17,16.43-24.93-12.9-52.43-36.64-32.9-23.31,25.88-52.48,49.18-75.23,75.23-14.64,16.76-19.45,35.59-22.43,57.28Z"/>
  <path d="M74.66,293.6l232.62-.18c17.53,3.02,17.49,26.95,0,29.95H75.97c-16.86-2.47-17.76-25.79-1.32-29.77Z"/>
</svg>