<?xml version="1.0" encoding="UTF-8"?>
<svg id="Layer_1" xmlns="http://www.w3.org/2000/svg" version="1.1" viewBox="0 0 346.65 383.27">
  <!-- Generator: Adobe Illustrator 29.0.1, SVG Export Plug-In . SVG Version: 2.1.0 Build 192)  -->
  <path d="M180.12,382.99c-2.98.38-10.47.36-13.47,0-15.45-1.86-30.99-15.83-35.96-30.27-2.37-6.87-1.22-14.72-3.57-20.37-2.72-6.53-15.87-10.08-22.36-13.56s-23.99-17.16-28.49-17.9c-6.46-1.06-9.37,2.4-14.78,4.32-42.74,15.24-79.11-32.85-52.35-68.77,5.06-6.79,9.42-8.26,15.3-13.14,8.69-7.21,4.15-16.57,3.73-26.21s2.27-21,1.52-29.94-7.67-9.94-13.51-14.92c-38.23-32.61-2.77-94.16,46.62-75.75,5.89,2.2,7.67,5.39,14.97,4.13,4.17-.72,17.86-11.84,23.25-14.91s21.34-9.02,24.45-12.97c4.03-5.11,3.04-15.46,5.22-22.46,13.3-42.62,77.94-39.78,86.63,5.48,1.31,6.8-.3,14.21,5.65,19.04,4.62,3.75,16.03,7.51,22.03,10.9,6.12,3.46,20.19,15.25,25.54,15.68,4.83.39,9.15-3.3,13.44-4.9,49.51-18.55,84.64,43.74,46.62,75.75-4.94,4.16-13.35,6.87-14.25,14.19-.82,6.62,1.38,14.28,1.55,20.93.19,7.59-1.31,14.94-1.56,22.44-.41,12.55,4.49,11.49,12.36,17.63,40.83,31.82,4.93,94.67-41.93,78.55-6.36-2.19-10.05-6.69-17.77-5.09-3.81.79-17.52,11.98-22.49,14.92-6.78,4-15.83,6.81-21.73,10.45-8.55,5.28-5.68,14.44-7.74,22.93-3.93,16.17-20.22,31.68-36.9,33.81ZM170.19,30.12c-14.23,2.42-10.53,17.55-13.65,27.5-7.07,22.57-22.87,24.26-40.55,34.28-17.22,9.75-25.58,22.58-48.44,18.74-7.96-1.34-15.56-7.58-22.56-7.44-14.6.29-19.74,17.69-8.22,26.98,9.49,7.65,14.85,9.28,19.97,21.93s2.5,16.58,2.08,28.53c-.74,21.32,6.17,41.69-8.57,59.51-5,6.05-12.09,8.62-16.1,13.08-6.66,7.41-4.29,19.48,4.95,23.47,10.43,4.5,18.3-4.71,29.2-5.81,24.23-2.45,31.41,10.92,49.93,20.98,14.35,7.79,25.67,8.59,34.57,24.54,5.42,9.72,4.18,14.17,5.78,24.14,2.44,15.11,24.18,16.91,28.8,2.22,2.79-8.88.51-15.42,5.81-25.61,8.91-17.12,23.93-18.88,38.79-27.81,16.95-10.18,24.99-22.4,47.83-18.34,6.93,1.23,10.44,4.11,16.33,6.12,13.25,4.5,24.79-8.69,18.24-21.22-2.48-4.74-9.9-7.65-14.12-11.32-20.21-17.59-12.25-39.29-13.09-62.47-.53-14.61-3.56-20.84,4.6-34.97,5.43-9.41,10.15-10.65,17.77-16.65s9.6-15.64,2.7-22.79c-10.9-11.28-23.87,2.59-36.8,3.67-21.4,1.79-29.17-10.23-45.44-19.48-14.71-8.37-28.54-10.36-37.07-27.28-4.89-9.69-2.92-16.49-5.71-24.96-2.44-7.42-9.45-10.83-17.05-9.53Z"/>
  <path d="M167.99,113.19c39.95-2.62,74,22.7,82.14,61.84,13.7,65.81-55.61,117.84-114.68,85.43-67.89-37.25-46.5-142.09,32.54-147.26ZM167.23,143.09c-32.58,3.72-50.84,38.57-38.14,68.37,15.21,35.7,68.22,37.91,86.6,3.99s-8.66-76.9-48.46-72.36Z"/>
</svg>