<?xml version="1.0" encoding="UTF-8"?>
<svg id="Layer_1" xmlns="http://www.w3.org/2000/svg" version="1.1" viewBox="0 0 383.07 383.34">
  <!-- Generator: Adobe Illustrator 29.0.1, SVG Export Plug-In . SVG Version: 2.1.0 Build 192)  -->
  <path d="M103.09,0c7.9,1.83,15.7,4.15,22.68,8.38,8.66,5.26,37.25,34.63,42.74,43.33,16.59,26.32,8.04,62.12-19,77.42-12.4,7.02-25.46,7.78-33.06,21.57-14.18,25.71,14.64,58.78,31.53,76.5s50.38,49.57,76.93,42.48c22.1-5.9,20.83-23.87,30.99-39.37,17.25-26.33,55.78-32.73,80.28-12.47,12.15,10.05,37.17,33.82,42.66,47.9,1.99,5.1,2.82,10.44,4.13,15.71-.25,3.39.34,7.16,0,10.48-4.52,44.24-71.24,83.26-111.34,89.61C120.05,405.53-74.48,185.24,29.13,45.41,42.5,27.37,66.22,2.51,89.62,0h13.47ZM93.2,30.15c-15.07,1.59-36.89,28.03-44.75,40.57-51.25,81.79,12.19,180.16,76.74,232.42,62.38,50.5,146.65,75.77,210.56,12.29,12.02-11.94,24.62-27.14,12.05-44.09-4.16-5.61-30.6-31.12-36.15-33.45-11.9-5.01-25.2-.47-31.49,10.7-8.8,15.65-8.77,26.61-24.79,38.83-36.09,27.51-74.94,8.95-105.14-16.81-38.25-32.64-96.86-96.68-51.6-146.71,10.97-12.12,23.54-13.68,36.42-21.21s15.5-25.27,6.2-37.18c-5.28-6.76-22.55-24.91-29.15-29.98-5.18-3.98-12.43-6.07-18.89-5.38Z"/>
  <path d="M224.32,0c5.98,1.33,12.09,1.94,18.1,3.23,64.2,13.71,117.56,65.35,135.09,128.35l5.45,28.61v6.74c-3.09,12.55-19.58,16.68-27.27,5.94-3.77-5.26-4.47-20.76-6.17-28.26-11.64-51.43-51.76-93.9-102.18-108.87-11.02-3.27-21.08-3.51-31.44-5.98-15.93-3.8-15.72-24.91-.56-29.75h8.98Z"/>
  <path d="M215.89,60.06c4.74-.81,10.34.81,15.03,1.83,41.68,9.04,76.72,42.85,88.45,83.69,2.04,7.09,5.21,17.12,2.37,24.11-4.39,10.78-18.39,12.61-25.56,3.58-3.89-4.9-3.42-10.91-5.02-16.69-8.69-31.42-31.49-55.25-62.94-64.29-7.45-2.14-17.04-1.9-21.87-8.82-5.86-8.4-.65-21.67,9.54-23.4Z"/>
  <path d="M215.89,121.44c17.29-2.88,46.24,26.76,45.87,43.57-.2,8.87-8.28,15.45-16.86,14.63-12.46-1.19-12.57-14.61-19.81-22.1-5.71-5.92-14.77-6.76-18.91-13.27-5.44-8.56-.45-21.14,9.71-22.83Z"/>
</svg>